<?xml version="1.0" standalone="no"?>
<!DOCTYPE svg PUBLIC "-//W3C//DTD SVG 20010904//EN"
 "http://www.w3.org/TR/2001/REC-SVG-20010904/DTD/svg10.dtd">
<svg version="1.0" xmlns="http://www.w3.org/2000/svg"
 width="455.000000pt" height="455.000000pt" viewBox="0 0 455.000000 455.000000"
 preserveAspectRatio="xMidYMid meet">
<metadata>
Created by potrace 1.11, written by Peter Selinger 2001-2013
</metadata>
<g transform="translate(0.000000,455.000000) scale(0.100000,-0.100000)"
fill="#000000" stroke="none">
<path d="M4230 4539 c-246 -65 -543 -220 -890 -464 -170 -119 -172 -120 -337
-247 -85 -65 -156 -118 -158 -118 -3 0 -28 11 -57 25 -123 56 -286 104 -418
122 -71 9 -288 10 -361 1 -207 -26 -440 -113 -618 -231 -182 -121 -360 -318
-468 -518 -66 -121 -132 -320 -148 -444 -4 -27 -10 -68 -14 -90 -8 -46 -7
-238 2 -305 19 -143 71 -325 123 -434 23 -47 23 -50 6 -71 -9 -13 -71 -92
-137 -177 -491 -624 -775 -1154 -752 -1398 8 -74 19 -102 56 -133 57 -48 130
-57 248 -33 190 40 440 163 763 374 131 85 307 208 320 222 3 3 41 32 85 64
88 65 167 127 326 258 101 83 108 87 145 82 205 -28 353 -25 527 11 275 55
516 185 718 385 291 288 436 652 423 1055 -4 127 -6 148 -18 207 -8 36 -5 41
70 135 43 54 81 100 84 103 3 3 18 23 35 45 16 22 32 42 35 45 18 15 227 307
315 440 204 308 362 616 375 732 0 4 7 25 14 46 9 23 13 73 12 125 -2 80 -4
89 -32 124 -17 21 -44 45 -60 53 -34 17 -163 22 -214 9z m-237 -294 c43 -20
58 -47 62 -108 7 -113 -77 -310 -248 -582 -6 -11 -46 -68 -87 -128 -41 -60
-82 -119 -90 -130 -8 -12 -48 -66 -89 -120 -71 -94 -75 -98 -86 -76 -11 20 -3
34 80 148 219 302 335 501 395 680 60 179 28 261 -102 261 -52 0 -159 -30
-238 -66 -67 -31 -236 -127 -317 -180 -46 -29 -83 -52 -83 -50 0 13 262 179
390 247 189 100 341 139 413 104z m-338 -248 c8 -12 15 -36 15 -55 0 -82 -109
-292 -261 -503 -41 -57 -77 -108 -81 -114 -5 -6 -20 3 -39 25 -85 96 -118 129
-182 184 -39 32 -93 72 -120 89 -26 16 -45 33 -40 37 95 81 330 236 444 293
149 74 233 88 264 44z m-505 -131 c0 -2 -8 -10 -17 -17 -16 -13 -17 -12 -4 4
13 16 21 21 21 13z m-1170 -425 c307 -51 598 -224 820 -486 42 -50 100 -132
100 -142 0 -46 -769 -824 -1105 -1118 -44 -39 -95 -84 -115 -102 -83 -74 -254
-213 -262 -213 -20 0 -137 98 -228 189 -370 375 -487 917 -290 1339 138 293
422 500 740 539 25 3 47 7 48 8 8 7 232 -4 292 -14z m1043 -863 c4 -16 -5 -33
-37 -67 -23 -25 -80 -86 -126 -136 -99 -107 -581 -589 -695 -695 -119 -111
-227 -207 -370 -329 -115 -99 -130 -108 -150 -99 -22 10 -18 15 73 91 53 44
115 97 137 116 22 20 74 65 114 101 200 176 606 572 786 765 78 84 204 221
226 247 29 33 35 34 42 6z m83 -506 c-34 -515 -437 -902 -953 -917 -46 -1 -83
1 -83 5 0 6 86 87 174 163 187 163 668 634 815 798 25 27 47 49 49 49 3 0 2
-44 -2 -98z m-2112 -428 c65 -104 199 -248 304 -331 l24 -19 -109 -80 c-323
-240 -566 -363 -647 -326 -83 38 -14 236 182 522 74 107 204 280 211 280 3 0
19 -21 35 -46z m-314 -254 c-12 -16 -24 -30 -26 -30 -3 0 4 14 16 30 12 17 24
30 26 30 3 0 -4 -13 -16 -30z m-62 -92 c-33 -44 -132 -214 -173 -297 -104
-210 -117 -356 -34 -398 128 -67 504 117 981 479 89 68 122 88 138 83 11 -3
20 -9 19 -13 -1 -14 -294 -235 -449 -339 -308 -208 -529 -312 -665 -316 -74
-2 -108 13 -131 61 -32 68 -3 194 91 383 70 140 225 389 242 389 3 0 -6 -15
-19 -32z"/>
</g>
</svg>
